<mxfile host="app.diagrams.net" modified="2024-02-02T11:02:59.648Z" agent="Mozilla/5.0 (Windows NT 10.0; Win64; x64; rv:122.0) Gecko/20100101 Firefox/122.0" etag="rjIQSV9DPdaMoRvQvU-p" version="23.1.0" type="github">
  <diagram name="Pagina-1" id="Arrn7-kh2ieOKjbXW_da">
    <mxGraphModel dx="1037" dy="522" grid="1" gridSize="10" guides="1" tooltips="1" connect="1" arrows="1" fold="1" page="1" pageScale="1" pageWidth="827" pageHeight="1169" math="0" shadow="0">
      <root>
        <mxCell id="0" />
        <mxCell id="1" parent="0" />
        <mxCell id="eIxSiKQZFVduc0nagoGd-22" value="&lt;b&gt;&lt;font style=&quot;font-size: 14px;&quot;&gt;Use case 7&lt;br&gt;&lt;/font&gt;&lt;/b&gt;" style="text;html=1;strokeColor=none;fillColor=none;align=left;verticalAlign=middle;whiteSpace=wrap;rounded=0;" vertex="1" parent="1">
          <mxGeometry x="40" y="40" width="120" height="30" as="geometry" />
        </mxCell>
        <mxCell id="eIxSiKQZFVduc0nagoGd-23" style="edgeStyle=orthogonalEdgeStyle;rounded=0;orthogonalLoop=1;jettySize=auto;html=1;entryX=0;entryY=0.5;entryDx=0;entryDy=0;" edge="1" parent="1" source="eIxSiKQZFVduc0nagoGd-24" target="eIxSiKQZFVduc0nagoGd-26">
          <mxGeometry relative="1" as="geometry" />
        </mxCell>
        <mxCell id="eIxSiKQZFVduc0nagoGd-24" value="Open web browser" style="rounded=0;whiteSpace=wrap;html=1;" vertex="1" parent="1">
          <mxGeometry x="200" y="320" width="80" height="40" as="geometry" />
        </mxCell>
        <mxCell id="eIxSiKQZFVduc0nagoGd-25" style="edgeStyle=orthogonalEdgeStyle;rounded=0;orthogonalLoop=1;jettySize=auto;html=1;entryX=0;entryY=0.5;entryDx=0;entryDy=0;" edge="1" parent="1" source="eIxSiKQZFVduc0nagoGd-26" target="eIxSiKQZFVduc0nagoGd-28">
          <mxGeometry relative="1" as="geometry" />
        </mxCell>
        <mxCell id="eIxSiKQZFVduc0nagoGd-26" value="Enter URL" style="rounded=0;whiteSpace=wrap;html=1;" vertex="1" parent="1">
          <mxGeometry x="320" y="320" width="80" height="40" as="geometry" />
        </mxCell>
        <mxCell id="eIxSiKQZFVduc0nagoGd-40" value="" style="endArrow=none;dashed=1;html=1;rounded=0;" edge="1" parent="1">
          <mxGeometry width="50" height="50" relative="1" as="geometry">
            <mxPoint x="40" y="300" as="sourcePoint" />
            <mxPoint x="800" y="300" as="targetPoint" />
          </mxGeometry>
        </mxCell>
        <mxCell id="eIxSiKQZFVduc0nagoGd-43" value="&lt;font size=&quot;1&quot;&gt;&lt;b&gt;Website&lt;/b&gt;&lt;/font&gt;" style="text;html=1;strokeColor=none;fillColor=none;align=left;verticalAlign=middle;whiteSpace=wrap;rounded=0;" vertex="1" parent="1">
          <mxGeometry x="40" y="250" width="120" height="30" as="geometry" />
        </mxCell>
        <mxCell id="eIxSiKQZFVduc0nagoGd-45" value="&lt;font size=&quot;1&quot;&gt;&lt;b&gt;Operating system&lt;br&gt;&lt;/b&gt;&lt;/font&gt;" style="text;html=1;strokeColor=none;fillColor=none;align=left;verticalAlign=middle;whiteSpace=wrap;rounded=0;" vertex="1" parent="1">
          <mxGeometry x="40" y="325" width="120" height="30" as="geometry" />
        </mxCell>
        <mxCell id="eIxSiKQZFVduc0nagoGd-46" value="&lt;font size=&quot;1&quot;&gt;&lt;b&gt;Film/Screening database&lt;br&gt;&lt;/b&gt;&lt;/font&gt;" style="text;html=1;strokeColor=none;fillColor=none;align=left;verticalAlign=middle;whiteSpace=wrap;rounded=0;" vertex="1" parent="1">
          <mxGeometry x="40" y="160" width="120" height="30" as="geometry" />
        </mxCell>
        <mxCell id="eIxSiKQZFVduc0nagoGd-53" value="" style="swimlane;startSize=0;fillColor=#FF9999;strokeColor=#b85450;gradientColor=none;" vertex="1" parent="1">
          <mxGeometry x="440" y="80" width="240" height="340" as="geometry">
            <mxRectangle x="440" y="80" width="50" height="40" as="alternateBounds" />
          </mxGeometry>
        </mxCell>
        <mxCell id="eIxSiKQZFVduc0nagoGd-28" value="Search film" style="rounded=0;whiteSpace=wrap;html=1;" vertex="1" parent="eIxSiKQZFVduc0nagoGd-53">
          <mxGeometry x="20" y="160" width="80" height="40" as="geometry" />
        </mxCell>
        <mxCell id="eIxSiKQZFVduc0nagoGd-59" style="edgeStyle=orthogonalEdgeStyle;rounded=0;orthogonalLoop=1;jettySize=auto;html=1;entryX=0.5;entryY=1;entryDx=0;entryDy=0;" edge="1" parent="eIxSiKQZFVduc0nagoGd-53" source="eIxSiKQZFVduc0nagoGd-31">
          <mxGeometry relative="1" as="geometry">
            <mxPoint x="180" y="120" as="targetPoint" />
          </mxGeometry>
        </mxCell>
        <mxCell id="eIxSiKQZFVduc0nagoGd-31" value="Select screening" style="rounded=0;whiteSpace=wrap;html=1;" vertex="1" parent="eIxSiKQZFVduc0nagoGd-53">
          <mxGeometry x="140" y="160" width="80" height="40" as="geometry" />
        </mxCell>
        <mxCell id="eIxSiKQZFVduc0nagoGd-34" value="Continue purchasing flow" style="rounded=0;whiteSpace=wrap;html=1;" vertex="1" parent="eIxSiKQZFVduc0nagoGd-53">
          <mxGeometry x="260" y="160" width="100" height="40" as="geometry" />
        </mxCell>
        <mxCell id="eIxSiKQZFVduc0nagoGd-30" style="edgeStyle=orthogonalEdgeStyle;rounded=0;orthogonalLoop=1;jettySize=auto;html=1;" edge="1" parent="eIxSiKQZFVduc0nagoGd-53" source="eIxSiKQZFVduc0nagoGd-31" target="eIxSiKQZFVduc0nagoGd-34">
          <mxGeometry relative="1" as="geometry" />
        </mxCell>
        <mxCell id="eIxSiKQZFVduc0nagoGd-50" style="edgeStyle=orthogonalEdgeStyle;rounded=0;orthogonalLoop=1;jettySize=auto;html=1;entryX=0;entryY=0.5;entryDx=0;entryDy=0;" edge="1" parent="eIxSiKQZFVduc0nagoGd-53" source="eIxSiKQZFVduc0nagoGd-48" target="eIxSiKQZFVduc0nagoGd-31">
          <mxGeometry relative="1" as="geometry" />
        </mxCell>
        <mxCell id="eIxSiKQZFVduc0nagoGd-51" style="edgeStyle=orthogonalEdgeStyle;rounded=0;orthogonalLoop=1;jettySize=auto;html=1;" edge="1" parent="eIxSiKQZFVduc0nagoGd-53" source="eIxSiKQZFVduc0nagoGd-48" target="eIxSiKQZFVduc0nagoGd-28">
          <mxGeometry relative="1" as="geometry" />
        </mxCell>
        <mxCell id="eIxSiKQZFVduc0nagoGd-48" value="Return Query requests*" style="rounded=0;whiteSpace=wrap;html=1;" vertex="1" parent="eIxSiKQZFVduc0nagoGd-53">
          <mxGeometry x="20" y="80" width="80" height="40" as="geometry" />
        </mxCell>
        <mxCell id="eIxSiKQZFVduc0nagoGd-49" style="edgeStyle=orthogonalEdgeStyle;rounded=0;orthogonalLoop=1;jettySize=auto;html=1;entryX=0.5;entryY=1;entryDx=0;entryDy=0;" edge="1" parent="eIxSiKQZFVduc0nagoGd-53" source="eIxSiKQZFVduc0nagoGd-28" target="eIxSiKQZFVduc0nagoGd-48">
          <mxGeometry relative="1" as="geometry" />
        </mxCell>
        <mxCell id="eIxSiKQZFVduc0nagoGd-42" value="" style="endArrow=none;dashed=1;html=1;rounded=0;" edge="1" parent="eIxSiKQZFVduc0nagoGd-53">
          <mxGeometry width="50" height="50" relative="1" as="geometry">
            <mxPoint x="-400" y="140" as="sourcePoint" />
            <mxPoint x="360" y="140" as="targetPoint" />
          </mxGeometry>
        </mxCell>
        <mxCell id="eIxSiKQZFVduc0nagoGd-57" value="&lt;div align=&quot;center&quot;&gt;&lt;font size=&quot;1&quot;&gt;&lt;b&gt;Film and Screening selection page of Cineco&#39;s website&lt;/b&gt;&lt;/font&gt;&lt;br&gt;&lt;/div&gt;" style="text;html=1;strokeColor=none;fillColor=none;align=left;verticalAlign=middle;whiteSpace=wrap;rounded=0;" vertex="1" parent="eIxSiKQZFVduc0nagoGd-53">
          <mxGeometry x="40" y="20" width="160" height="40" as="geometry" />
        </mxCell>
        <mxCell id="eIxSiKQZFVduc0nagoGd-60" style="edgeStyle=orthogonalEdgeStyle;rounded=0;orthogonalLoop=1;jettySize=auto;html=1;entryX=0.5;entryY=0;entryDx=0;entryDy=0;" edge="1" parent="eIxSiKQZFVduc0nagoGd-53" target="eIxSiKQZFVduc0nagoGd-31">
          <mxGeometry relative="1" as="geometry">
            <mxPoint x="180" y="120" as="sourcePoint" />
          </mxGeometry>
        </mxCell>
        <mxCell id="eIxSiKQZFVduc0nagoGd-61" value="&lt;div align=&quot;left&quot;&gt;*The Query requested by the film selection returns the information of the selected film and all the screenings that are available for this film&lt;br&gt;&lt;/div&gt;" style="text;html=1;strokeColor=none;fillColor=none;align=left;verticalAlign=middle;whiteSpace=wrap;rounded=0;" vertex="1" parent="eIxSiKQZFVduc0nagoGd-53">
          <mxGeometry x="20" y="240" width="200" height="90" as="geometry" />
        </mxCell>
      </root>
    </mxGraphModel>
  </diagram>
</mxfile>
